<mxfile host="app.diagrams.net" agent="Mozilla/5.0 (Windows NT 10.0; Win64; x64) AppleWebKit/537.36 (KHTML, like Gecko) Chrome/135.0.0.0 Safari/537.36" version="26.2.14">
  <diagram name="Page-1" id="NpjBJUBbBdpTEmISKkUP">
    <mxGraphModel grid="1" page="1" gridSize="10" guides="1" tooltips="1" connect="1" arrows="1" fold="1" pageScale="1" pageWidth="850" pageHeight="1100" math="0" shadow="0">
      <root>
        <mxCell id="0" />
        <mxCell id="1" parent="0" />
        <mxCell id="ZB53LrSSdC5xNoq9Xd-c-1" value="JOB PORTAL" style="swimlane;html=1;childLayout=stackLayout;resizeParent=1;resizeParentMax=0;horizontal=0;startSize=20;horizontalStack=0;whiteSpace=wrap;" vertex="1" parent="1">
          <mxGeometry x="150" y="200" width="2480" height="720" as="geometry" />
        </mxCell>
        <mxCell id="ZB53LrSSdC5xNoq9Xd-c-2" value="JOB SEEKER" style="swimlane;html=1;startSize=20;horizontal=0;" vertex="1" parent="ZB53LrSSdC5xNoq9Xd-c-1">
          <mxGeometry x="20" width="2460" height="220" as="geometry" />
        </mxCell>
        <mxCell id="hL35bKCOSnFXlqC572pn-15" value="" style="edgeStyle=orthogonalEdgeStyle;rounded=0;orthogonalLoop=1;jettySize=auto;html=1;" edge="1" parent="ZB53LrSSdC5xNoq9Xd-c-2" source="ZB53LrSSdC5xNoq9Xd-c-14">
          <mxGeometry relative="1" as="geometry">
            <mxPoint x="290" y="70" as="targetPoint" />
          </mxGeometry>
        </mxCell>
        <mxCell id="ZB53LrSSdC5xNoq9Xd-c-14" value="login" style="points=[[0.25,0,0],[0.5,0,0],[0.75,0,0],[1,0.25,0],[1,0.5,0],[1,0.75,0],[0.75,1,0],[0.5,1,0],[0.25,1,0],[0,0.75,0],[0,0.5,0],[0,0.25,0]];shape=mxgraph.bpmn.task2;whiteSpace=wrap;rectStyle=rounded;size=10;html=1;container=1;expand=0;collapsible=0;taskMarker=abstract;" vertex="1" parent="ZB53LrSSdC5xNoq9Xd-c-2">
          <mxGeometry x="160" y="40" width="50" height="60" as="geometry" />
        </mxCell>
        <mxCell id="ZB53LrSSdC5xNoq9Xd-c-36" value="save job" style="points=[[0.25,0,0],[0.5,0,0],[0.75,0,0],[1,0.25,0],[1,0.5,0],[1,0.75,0],[0.75,1,0],[0.5,1,0],[0.25,1,0],[0,0.75,0],[0,0.5,0],[0,0.25,0]];shape=mxgraph.bpmn.task2;whiteSpace=wrap;rectStyle=rounded;size=10;html=1;container=1;expand=0;collapsible=0;taskMarker=abstract;" vertex="1" parent="ZB53LrSSdC5xNoq9Xd-c-2">
          <mxGeometry x="540" y="150" width="50" height="60" as="geometry" />
        </mxCell>
        <mxCell id="ZB53LrSSdC5xNoq9Xd-c-44" value="" style="edgeStyle=orthogonalEdgeStyle;rounded=0;orthogonalLoop=1;jettySize=auto;html=1;entryX=0;entryY=0.5;entryDx=0;entryDy=0;entryPerimeter=0;" edge="1" parent="ZB53LrSSdC5xNoq9Xd-c-2" target="ZB53LrSSdC5xNoq9Xd-c-47">
          <mxGeometry relative="1" as="geometry">
            <mxPoint x="710" y="70" as="sourcePoint" />
            <mxPoint x="630" y="69.33" as="targetPoint" />
          </mxGeometry>
        </mxCell>
        <mxCell id="hL35bKCOSnFXlqC572pn-21" value="" style="edgeStyle=orthogonalEdgeStyle;rounded=0;orthogonalLoop=1;jettySize=auto;html=1;" edge="1" parent="ZB53LrSSdC5xNoq9Xd-c-2" source="ZB53LrSSdC5xNoq9Xd-c-47" target="hL35bKCOSnFXlqC572pn-20">
          <mxGeometry relative="1" as="geometry" />
        </mxCell>
        <mxCell id="ZB53LrSSdC5xNoq9Xd-c-47" value="apply&lt;div&gt;job&lt;/div&gt;" style="points=[[0.25,0,0],[0.5,0,0],[0.75,0,0],[1,0.25,0],[1,0.5,0],[1,0.75,0],[0.75,1,0],[0.5,1,0],[0.25,1,0],[0,0.75,0],[0,0.5,0],[0,0.25,0]];shape=mxgraph.bpmn.task2;whiteSpace=wrap;rectStyle=rounded;size=10;html=1;container=1;expand=0;collapsible=0;taskMarker=abstract;" vertex="1" parent="ZB53LrSSdC5xNoq9Xd-c-2">
          <mxGeometry x="790" y="40" width="50" height="60" as="geometry" />
        </mxCell>
        <mxCell id="hL35bKCOSnFXlqC572pn-2" value="" style="points=[[0.145,0.145,0],[0.5,0,0],[0.855,0.145,0],[1,0.5,0],[0.855,0.855,0],[0.5,1,0],[0.145,0.855,0],[0,0.5,0]];shape=mxgraph.bpmn.event;html=1;verticalLabelPosition=bottom;labelBackgroundColor=#ffffff;verticalAlign=top;align=center;perimeter=ellipsePerimeter;outlineConnect=0;aspect=fixed;outline=standard;symbol=general;" vertex="1" parent="ZB53LrSSdC5xNoq9Xd-c-2">
          <mxGeometry x="30" y="45" width="50" height="50" as="geometry" />
        </mxCell>
        <mxCell id="hL35bKCOSnFXlqC572pn-13" style="edgeStyle=orthogonalEdgeStyle;rounded=0;orthogonalLoop=1;jettySize=auto;html=1;entryX=0;entryY=0.5;entryDx=0;entryDy=0;entryPerimeter=0;exitX=1;exitY=0.5;exitDx=0;exitDy=0;exitPerimeter=0;" edge="1" parent="ZB53LrSSdC5xNoq9Xd-c-2" source="hL35bKCOSnFXlqC572pn-2" target="ZB53LrSSdC5xNoq9Xd-c-14">
          <mxGeometry relative="1" as="geometry" />
        </mxCell>
        <mxCell id="hL35bKCOSnFXlqC572pn-17" value="" style="edgeStyle=orthogonalEdgeStyle;rounded=0;orthogonalLoop=1;jettySize=auto;html=1;" edge="1" parent="ZB53LrSSdC5xNoq9Xd-c-2" target="hL35bKCOSnFXlqC572pn-16">
          <mxGeometry relative="1" as="geometry">
            <mxPoint x="340" y="70" as="sourcePoint" />
          </mxGeometry>
        </mxCell>
        <mxCell id="hL35bKCOSnFXlqC572pn-19" value="" style="edgeStyle=orthogonalEdgeStyle;rounded=0;orthogonalLoop=1;jettySize=auto;html=1;entryX=0;entryY=0.5;entryDx=0;entryDy=0;entryPerimeter=0;" edge="1" parent="ZB53LrSSdC5xNoq9Xd-c-2" source="hL35bKCOSnFXlqC572pn-16" target="hL35bKCOSnFXlqC572pn-32">
          <mxGeometry relative="1" as="geometry">
            <mxPoint x="535" y="70" as="targetPoint" />
          </mxGeometry>
        </mxCell>
        <mxCell id="hL35bKCOSnFXlqC572pn-16" value="create&amp;nbsp;&lt;div&gt;profile&lt;/div&gt;" style="points=[[0.25,0,0],[0.5,0,0],[0.75,0,0],[1,0.25,0],[1,0.5,0],[1,0.75,0],[0.75,1,0],[0.5,1,0],[0.25,1,0],[0,0.75,0],[0,0.5,0],[0,0.25,0]];shape=mxgraph.bpmn.task2;whiteSpace=wrap;rectStyle=rounded;size=10;html=1;container=1;expand=0;collapsible=0;taskMarker=abstract;" vertex="1" parent="ZB53LrSSdC5xNoq9Xd-c-2">
          <mxGeometry x="420" y="40" width="50" height="60" as="geometry" />
        </mxCell>
        <mxCell id="hL35bKCOSnFXlqC572pn-23" value="" style="edgeStyle=orthogonalEdgeStyle;rounded=0;orthogonalLoop=1;jettySize=auto;html=1;" edge="1" parent="ZB53LrSSdC5xNoq9Xd-c-2" source="hL35bKCOSnFXlqC572pn-20" target="hL35bKCOSnFXlqC572pn-22">
          <mxGeometry relative="1" as="geometry" />
        </mxCell>
        <mxCell id="hL35bKCOSnFXlqC572pn-20" value="CV/&lt;div&gt;resume&lt;/div&gt;" style="points=[[0.25,0,0],[0.5,0,0],[0.75,0,0],[1,0.25,0],[1,0.5,0],[1,0.75,0],[0.75,1,0],[0.5,1,0],[0.25,1,0],[0,0.75,0],[0,0.5,0],[0,0.25,0]];shape=mxgraph.bpmn.task2;whiteSpace=wrap;rectStyle=rounded;size=10;html=1;container=1;expand=0;collapsible=0;taskMarker=abstract;" vertex="1" parent="ZB53LrSSdC5xNoq9Xd-c-2">
          <mxGeometry x="960" y="40" width="50" height="60" as="geometry" />
        </mxCell>
        <mxCell id="hL35bKCOSnFXlqC572pn-25" value="" style="edgeStyle=orthogonalEdgeStyle;rounded=0;orthogonalLoop=1;jettySize=auto;html=1;" edge="1" parent="ZB53LrSSdC5xNoq9Xd-c-2" source="hL35bKCOSnFXlqC572pn-22" target="hL35bKCOSnFXlqC572pn-24">
          <mxGeometry relative="1" as="geometry" />
        </mxCell>
        <mxCell id="hL35bKCOSnFXlqC572pn-22" value="chat" style="points=[[0.25,0,0],[0.5,0,0],[0.75,0,0],[1,0.25,0],[1,0.5,0],[1,0.75,0],[0.75,1,0],[0.5,1,0],[0.25,1,0],[0,0.75,0],[0,0.5,0],[0,0.25,0]];shape=mxgraph.bpmn.task2;whiteSpace=wrap;rectStyle=rounded;size=10;html=1;container=1;expand=0;collapsible=0;taskMarker=abstract;" vertex="1" parent="ZB53LrSSdC5xNoq9Xd-c-2">
          <mxGeometry x="1130" y="40" width="60" height="60" as="geometry" />
        </mxCell>
        <mxCell id="hL35bKCOSnFXlqC572pn-27" value="" style="edgeStyle=orthogonalEdgeStyle;rounded=0;orthogonalLoop=1;jettySize=auto;html=1;" edge="1" parent="ZB53LrSSdC5xNoq9Xd-c-2" source="hL35bKCOSnFXlqC572pn-24" target="hL35bKCOSnFXlqC572pn-26">
          <mxGeometry relative="1" as="geometry" />
        </mxCell>
        <mxCell id="hL35bKCOSnFXlqC572pn-24" value="notification" style="points=[[0.25,0,0],[0.5,0,0],[0.75,0,0],[1,0.25,0],[1,0.5,0],[1,0.75,0],[0.75,1,0],[0.5,1,0],[0.25,1,0],[0,0.75,0],[0,0.5,0],[0,0.25,0]];shape=mxgraph.bpmn.task2;whiteSpace=wrap;rectStyle=rounded;size=10;html=1;container=1;expand=0;collapsible=0;taskMarker=abstract;" vertex="1" parent="ZB53LrSSdC5xNoq9Xd-c-2">
          <mxGeometry x="1375" y="40" width="70" height="60" as="geometry" />
        </mxCell>
        <mxCell id="hL35bKCOSnFXlqC572pn-26" value="help/&lt;div&gt;support&lt;/div&gt;" style="points=[[0.25,0,0],[0.5,0,0],[0.75,0,0],[1,0.25,0],[1,0.5,0],[1,0.75,0],[0.75,1,0],[0.5,1,0],[0.25,1,0],[0,0.75,0],[0,0.5,0],[0,0.25,0]];shape=mxgraph.bpmn.task2;whiteSpace=wrap;rectStyle=rounded;size=10;html=1;container=1;expand=0;collapsible=0;taskMarker=abstract;" vertex="1" parent="ZB53LrSSdC5xNoq9Xd-c-2">
          <mxGeometry x="1570" y="40" width="70" height="60" as="geometry" />
        </mxCell>
        <mxCell id="hL35bKCOSnFXlqC572pn-28" value="" style="points=[[0.145,0.145,0],[0.5,0,0],[0.855,0.145,0],[1,0.5,0],[0.855,0.855,0],[0.5,1,0],[0.145,0.855,0],[0,0.5,0]];shape=mxgraph.bpmn.event;html=1;verticalLabelPosition=bottom;labelBackgroundColor=#ffffff;verticalAlign=top;align=center;perimeter=ellipsePerimeter;outlineConnect=0;aspect=fixed;outline=end;symbol=terminate2;" vertex="1" parent="ZB53LrSSdC5xNoq9Xd-c-2">
          <mxGeometry x="1720" y="40" width="50" height="50" as="geometry" />
        </mxCell>
        <mxCell id="hL35bKCOSnFXlqC572pn-29" value="" style="edgeStyle=orthogonalEdgeStyle;rounded=0;orthogonalLoop=1;jettySize=auto;html=1;" edge="1" parent="ZB53LrSSdC5xNoq9Xd-c-2">
          <mxGeometry relative="1" as="geometry">
            <mxPoint x="1640" y="70" as="sourcePoint" />
            <mxPoint x="1720" y="70" as="targetPoint" />
          </mxGeometry>
        </mxCell>
        <mxCell id="hL35bKCOSnFXlqC572pn-31" value="" style="rhombus;whiteSpace=wrap;html=1;" vertex="1" parent="ZB53LrSSdC5xNoq9Xd-c-2">
          <mxGeometry x="290" y="40" width="65" height="60" as="geometry" />
        </mxCell>
        <mxCell id="hL35bKCOSnFXlqC572pn-32" value="search&lt;div&gt;job&lt;/div&gt;" style="points=[[0.25,0,0],[0.5,0,0],[0.75,0,0],[1,0.25,0],[1,0.5,0],[1,0.75,0],[0.75,1,0],[0.5,1,0],[0.25,1,0],[0,0.75,0],[0,0.5,0],[0,0.25,0]];shape=mxgraph.bpmn.task2;whiteSpace=wrap;rectStyle=rounded;size=10;html=1;container=1;expand=0;collapsible=0;taskMarker=abstract;" vertex="1" parent="ZB53LrSSdC5xNoq9Xd-c-2">
          <mxGeometry x="540" y="40" width="50" height="60" as="geometry" />
        </mxCell>
        <mxCell id="hL35bKCOSnFXlqC572pn-33" value="" style="rhombus;whiteSpace=wrap;html=1;" vertex="1" parent="ZB53LrSSdC5xNoq9Xd-c-2">
          <mxGeometry x="660" y="40" width="65" height="60" as="geometry" />
        </mxCell>
        <mxCell id="hL35bKCOSnFXlqC572pn-34" value="" style="edgeStyle=orthogonalEdgeStyle;rounded=0;orthogonalLoop=1;jettySize=auto;html=1;entryX=0;entryY=0.5;entryDx=0;entryDy=0;entryPerimeter=0;" edge="1" parent="ZB53LrSSdC5xNoq9Xd-c-2">
          <mxGeometry relative="1" as="geometry">
            <mxPoint x="590" y="69.17000000000002" as="sourcePoint" />
            <mxPoint x="660" y="69.17000000000002" as="targetPoint" />
          </mxGeometry>
        </mxCell>
        <mxCell id="hL35bKCOSnFXlqC572pn-35" value="" style="edgeStyle=elbowEdgeStyle;fontSize=12;html=1;endArrow=blockThin;endFill=1;rounded=0;exitX=0.5;exitY=1;exitDx=0;exitDy=0;entryX=1;entryY=0.5;entryDx=0;entryDy=0;entryPerimeter=0;" edge="1" parent="ZB53LrSSdC5xNoq9Xd-c-2" source="hL35bKCOSnFXlqC572pn-33" target="ZB53LrSSdC5xNoq9Xd-c-36">
          <mxGeometry width="160" relative="1" as="geometry">
            <mxPoint x="450" y="290" as="sourcePoint" />
            <mxPoint x="610" y="290" as="targetPoint" />
            <Array as="points">
              <mxPoint x="693" y="160" />
            </Array>
          </mxGeometry>
        </mxCell>
        <mxCell id="hL35bKCOSnFXlqC572pn-36" value="" style="edgeStyle=elbowEdgeStyle;fontSize=12;html=1;endArrow=blockThin;endFill=1;rounded=0;exitX=0.5;exitY=0;exitDx=0;exitDy=0;exitPerimeter=0;entryX=0.5;entryY=1;entryDx=0;entryDy=0;entryPerimeter=0;" edge="1" parent="ZB53LrSSdC5xNoq9Xd-c-2" source="ZB53LrSSdC5xNoq9Xd-c-36" target="hL35bKCOSnFXlqC572pn-32">
          <mxGeometry width="160" relative="1" as="geometry">
            <mxPoint x="450" y="290" as="sourcePoint" />
            <mxPoint x="610" y="290" as="targetPoint" />
          </mxGeometry>
        </mxCell>
        <mxCell id="hL35bKCOSnFXlqC572pn-37" value="" style="edgeStyle=elbowEdgeStyle;fontSize=12;html=1;endArrow=blockThin;endFill=1;rounded=0;exitX=0.5;exitY=1;exitDx=0;exitDy=0;entryX=1;entryY=0.5;entryDx=0;entryDy=0;entryPerimeter=0;" edge="1" parent="ZB53LrSSdC5xNoq9Xd-c-2" target="hL35bKCOSnFXlqC572pn-38">
          <mxGeometry width="160" relative="1" as="geometry">
            <mxPoint x="323" y="100" as="sourcePoint" />
            <mxPoint x="220" y="180" as="targetPoint" />
            <Array as="points">
              <mxPoint x="323" y="160" />
            </Array>
          </mxGeometry>
        </mxCell>
        <mxCell id="hL35bKCOSnFXlqC572pn-38" value="register" style="points=[[0.25,0,0],[0.5,0,0],[0.75,0,0],[1,0.25,0],[1,0.5,0],[1,0.75,0],[0.75,1,0],[0.5,1,0],[0.25,1,0],[0,0.75,0],[0,0.5,0],[0,0.25,0]];shape=mxgraph.bpmn.task2;whiteSpace=wrap;rectStyle=rounded;size=10;html=1;container=1;expand=0;collapsible=0;taskMarker=abstract;" vertex="1" parent="ZB53LrSSdC5xNoq9Xd-c-2">
          <mxGeometry x="160" y="150" width="50" height="60" as="geometry" />
        </mxCell>
        <mxCell id="hL35bKCOSnFXlqC572pn-39" value="" style="edgeStyle=elbowEdgeStyle;fontSize=12;html=1;endArrow=blockThin;endFill=1;rounded=0;exitX=0.5;exitY=0;exitDx=0;exitDy=0;exitPerimeter=0;entryX=0.5;entryY=1;entryDx=0;entryDy=0;entryPerimeter=0;" edge="1" parent="ZB53LrSSdC5xNoq9Xd-c-2">
          <mxGeometry width="160" relative="1" as="geometry">
            <mxPoint x="184.17" y="150" as="sourcePoint" />
            <mxPoint x="184.17" y="100" as="targetPoint" />
          </mxGeometry>
        </mxCell>
        <mxCell id="ZB53LrSSdC5xNoq9Xd-c-3" value="JOB PROVIDER" style="swimlane;html=1;startSize=20;horizontal=0;" vertex="1" parent="ZB53LrSSdC5xNoq9Xd-c-1">
          <mxGeometry x="20" y="220" width="2460" height="200" as="geometry" />
        </mxCell>
        <mxCell id="ZB53LrSSdC5xNoq9Xd-c-63" value="login" style="points=[[0.25,0,0],[0.5,0,0],[0.75,0,0],[1,0.25,0],[1,0.5,0],[1,0.75,0],[0.75,1,0],[0.5,1,0],[0.25,1,0],[0,0.75,0],[0,0.5,0],[0,0.25,0]];shape=mxgraph.bpmn.task2;whiteSpace=wrap;rectStyle=rounded;size=10;html=1;container=1;expand=0;collapsible=0;taskMarker=abstract;" vertex="1" parent="ZB53LrSSdC5xNoq9Xd-c-3">
          <mxGeometry x="160" y="25" width="50" height="60" as="geometry" />
        </mxCell>
        <mxCell id="ZB53LrSSdC5xNoq9Xd-c-70" value="create profile" style="points=[[0.25,0,0],[0.5,0,0],[0.75,0,0],[1,0.25,0],[1,0.5,0],[1,0.75,0],[0.75,1,0],[0.5,1,0],[0.25,1,0],[0,0.75,0],[0,0.5,0],[0,0.25,0]];shape=mxgraph.bpmn.task2;whiteSpace=wrap;rectStyle=rounded;size=10;html=1;container=1;expand=0;collapsible=0;taskMarker=abstract;" vertex="1" parent="ZB53LrSSdC5xNoq9Xd-c-3">
          <mxGeometry x="470" y="25" width="50" height="60" as="geometry" />
        </mxCell>
        <mxCell id="ZB53LrSSdC5xNoq9Xd-c-72" value="Add&lt;div&gt;company&lt;/div&gt;&lt;div&gt;members&lt;/div&gt;" style="points=[[0.25,0,0],[0.5,0,0],[0.75,0,0],[1,0.25,0],[1,0.5,0],[1,0.75,0],[0.75,1,0],[0.5,1,0],[0.25,1,0],[0,0.75,0],[0,0.5,0],[0,0.25,0]];shape=mxgraph.bpmn.task2;whiteSpace=wrap;rectStyle=rounded;size=10;html=1;container=1;expand=0;collapsible=0;taskMarker=abstract;" vertex="1" parent="ZB53LrSSdC5xNoq9Xd-c-3">
          <mxGeometry x="640" y="25" width="70" height="60" as="geometry" />
        </mxCell>
        <mxCell id="ZB53LrSSdC5xNoq9Xd-c-73" value="" style="edgeStyle=orthogonalEdgeStyle;rounded=0;orthogonalLoop=1;jettySize=auto;html=1;entryX=0;entryY=0.5;entryDx=0;entryDy=0;entryPerimeter=0;" edge="1" parent="ZB53LrSSdC5xNoq9Xd-c-3" target="ZB53LrSSdC5xNoq9Xd-c-74">
          <mxGeometry relative="1" as="geometry">
            <mxPoint x="710" y="54.17" as="sourcePoint" />
            <mxPoint x="740" y="54.17" as="targetPoint" />
          </mxGeometry>
        </mxCell>
        <mxCell id="ZB53LrSSdC5xNoq9Xd-c-80" value="" style="edgeStyle=orthogonalEdgeStyle;rounded=0;orthogonalLoop=1;jettySize=auto;html=1;" edge="1" parent="ZB53LrSSdC5xNoq9Xd-c-3" source="ZB53LrSSdC5xNoq9Xd-c-74" target="ZB53LrSSdC5xNoq9Xd-c-79">
          <mxGeometry relative="1" as="geometry" />
        </mxCell>
        <mxCell id="ZB53LrSSdC5xNoq9Xd-c-74" value="job post" style="points=[[0.25,0,0],[0.5,0,0],[0.75,0,0],[1,0.25,0],[1,0.5,0],[1,0.75,0],[0.75,1,0],[0.5,1,0],[0.25,1,0],[0,0.75,0],[0,0.5,0],[0,0.25,0]];shape=mxgraph.bpmn.task2;whiteSpace=wrap;rectStyle=rounded;size=10;html=1;container=1;expand=0;collapsible=0;taskMarker=abstract;" vertex="1" parent="ZB53LrSSdC5xNoq9Xd-c-3">
          <mxGeometry x="790" y="25" width="50" height="60" as="geometry" />
        </mxCell>
        <mxCell id="ZB53LrSSdC5xNoq9Xd-c-82" value="" style="edgeStyle=orthogonalEdgeStyle;rounded=0;orthogonalLoop=1;jettySize=auto;html=1;" edge="1" parent="ZB53LrSSdC5xNoq9Xd-c-3" source="ZB53LrSSdC5xNoq9Xd-c-79" target="ZB53LrSSdC5xNoq9Xd-c-81">
          <mxGeometry relative="1" as="geometry" />
        </mxCell>
        <mxCell id="ZB53LrSSdC5xNoq9Xd-c-79" value="receive&amp;nbsp;&lt;div&gt;application&lt;/div&gt;" style="points=[[0.25,0,0],[0.5,0,0],[0.75,0,0],[1,0.25,0],[1,0.5,0],[1,0.75,0],[0.75,1,0],[0.5,1,0],[0.25,1,0],[0,0.75,0],[0,0.5,0],[0,0.25,0]];shape=mxgraph.bpmn.task2;whiteSpace=wrap;rectStyle=rounded;size=10;html=1;container=1;expand=0;collapsible=0;taskMarker=abstract;" vertex="1" parent="ZB53LrSSdC5xNoq9Xd-c-3">
          <mxGeometry x="960" y="30" width="60" height="50" as="geometry" />
        </mxCell>
        <mxCell id="ZB53LrSSdC5xNoq9Xd-c-84" value="" style="edgeStyle=orthogonalEdgeStyle;rounded=0;orthogonalLoop=1;jettySize=auto;html=1;" edge="1" parent="ZB53LrSSdC5xNoq9Xd-c-3" source="ZB53LrSSdC5xNoq9Xd-c-81" target="ZB53LrSSdC5xNoq9Xd-c-83">
          <mxGeometry relative="1" as="geometry" />
        </mxCell>
        <mxCell id="ZB53LrSSdC5xNoq9Xd-c-81" value="sort&amp;nbsp;&lt;div&gt;resume&lt;/div&gt;" style="points=[[0.25,0,0],[0.5,0,0],[0.75,0,0],[1,0.25,0],[1,0.5,0],[1,0.75,0],[0.75,1,0],[0.5,1,0],[0.25,1,0],[0,0.75,0],[0,0.5,0],[0,0.25,0]];shape=mxgraph.bpmn.task2;whiteSpace=wrap;rectStyle=rounded;size=10;html=1;container=1;expand=0;collapsible=0;taskMarker=abstract;" vertex="1" parent="ZB53LrSSdC5xNoq9Xd-c-3">
          <mxGeometry x="1120" y="25" width="70" height="60" as="geometry" />
        </mxCell>
        <mxCell id="ZB53LrSSdC5xNoq9Xd-c-91" value="" style="edgeStyle=orthogonalEdgeStyle;rounded=0;orthogonalLoop=1;jettySize=auto;html=1;" edge="1" parent="ZB53LrSSdC5xNoq9Xd-c-3" source="ZB53LrSSdC5xNoq9Xd-c-85" target="ZB53LrSSdC5xNoq9Xd-c-90">
          <mxGeometry relative="1" as="geometry" />
        </mxCell>
        <mxCell id="ZB53LrSSdC5xNoq9Xd-c-85" value="chat" style="points=[[0.25,0,0],[0.5,0,0],[0.75,0,0],[1,0.25,0],[1,0.5,0],[1,0.75,0],[0.75,1,0],[0.5,1,0],[0.25,1,0],[0,0.75,0],[0,0.5,0],[0,0.25,0]];shape=mxgraph.bpmn.task2;whiteSpace=wrap;rectStyle=rounded;size=10;html=1;container=1;expand=0;collapsible=0;taskMarker=abstract;" vertex="1" parent="ZB53LrSSdC5xNoq9Xd-c-3">
          <mxGeometry x="1490" y="25" width="60" height="60" as="geometry" />
        </mxCell>
        <mxCell id="ZB53LrSSdC5xNoq9Xd-c-98" value="" style="edgeStyle=orthogonalEdgeStyle;rounded=0;orthogonalLoop=1;jettySize=auto;html=1;entryX=0;entryY=0.5;entryDx=0;entryDy=0;entryPerimeter=0;" edge="1" parent="ZB53LrSSdC5xNoq9Xd-c-3" source="ZB53LrSSdC5xNoq9Xd-c-93" target="ZB53LrSSdC5xNoq9Xd-c-111">
          <mxGeometry relative="1" as="geometry">
            <mxPoint x="1380" y="60" as="sourcePoint" />
            <mxPoint x="1410" y="60" as="targetPoint" />
          </mxGeometry>
        </mxCell>
        <mxCell id="ZB53LrSSdC5xNoq9Xd-c-138" value="" style="edgeStyle=orthogonalEdgeStyle;rounded=0;orthogonalLoop=1;jettySize=auto;html=1;" edge="1" parent="ZB53LrSSdC5xNoq9Xd-c-3" source="ZB53LrSSdC5xNoq9Xd-c-111" target="ZB53LrSSdC5xNoq9Xd-c-137">
          <mxGeometry relative="1" as="geometry" />
        </mxCell>
        <mxCell id="ZB53LrSSdC5xNoq9Xd-c-111" value="conformation&lt;div&gt;mail&lt;/div&gt;" style="points=[[0.25,0,0],[0.5,0,0],[0.75,0,0],[1,0.25,0],[1,0.5,0],[1,0.75,0],[0.75,1,0],[0.5,1,0],[0.25,1,0],[0,0.75,0],[0,0.5,0],[0,0.25,0]];shape=mxgraph.bpmn.task2;whiteSpace=wrap;rectStyle=rounded;size=10;html=1;container=1;expand=0;collapsible=0;taskMarker=abstract;" vertex="1" parent="ZB53LrSSdC5xNoq9Xd-c-3">
          <mxGeometry x="1980" y="25" width="80" height="60" as="geometry" />
        </mxCell>
        <mxCell id="ZB53LrSSdC5xNoq9Xd-c-137" value="help/&lt;div&gt;support&lt;/div&gt;" style="points=[[0.25,0,0],[0.5,0,0],[0.75,0,0],[1,0.25,0],[1,0.5,0],[1,0.75,0],[0.75,1,0],[0.5,1,0],[0.25,1,0],[0,0.75,0],[0,0.5,0],[0,0.25,0]];shape=mxgraph.bpmn.task2;whiteSpace=wrap;rectStyle=rounded;size=10;html=1;container=1;expand=0;collapsible=0;taskMarker=abstract;" vertex="1" parent="ZB53LrSSdC5xNoq9Xd-c-3">
          <mxGeometry x="2160" y="25" width="80" height="60" as="geometry" />
        </mxCell>
        <mxCell id="hL35bKCOSnFXlqC572pn-41" value="" style="points=[[0.145,0.145,0],[0.5,0,0],[0.855,0.145,0],[1,0.5,0],[0.855,0.855,0],[0.5,1,0],[0.145,0.855,0],[0,0.5,0]];shape=mxgraph.bpmn.event;html=1;verticalLabelPosition=bottom;labelBackgroundColor=#ffffff;verticalAlign=top;align=center;perimeter=ellipsePerimeter;outlineConnect=0;aspect=fixed;outline=standard;symbol=general;" vertex="1" parent="ZB53LrSSdC5xNoq9Xd-c-3">
          <mxGeometry x="30" y="35" width="50" height="50" as="geometry" />
        </mxCell>
        <mxCell id="hL35bKCOSnFXlqC572pn-42" value="" style="edgeStyle=orthogonalEdgeStyle;rounded=0;orthogonalLoop=1;jettySize=auto;html=1;entryX=0;entryY=0.5;entryDx=0;entryDy=0;entryPerimeter=0;" edge="1" parent="ZB53LrSSdC5xNoq9Xd-c-3" source="ZB53LrSSdC5xNoq9Xd-c-90" target="ZB53LrSSdC5xNoq9Xd-c-93">
          <mxGeometry relative="1" as="geometry">
            <mxPoint x="1200" y="58.329999999999984" as="sourcePoint" />
            <mxPoint x="1250" y="58.329999999999984" as="targetPoint" />
          </mxGeometry>
        </mxCell>
        <mxCell id="hL35bKCOSnFXlqC572pn-45" value="" style="edgeStyle=orthogonalEdgeStyle;rounded=0;orthogonalLoop=1;jettySize=auto;html=1;entryX=0;entryY=0.5;entryDx=0;entryDy=0;entryPerimeter=0;" edge="1" parent="ZB53LrSSdC5xNoq9Xd-c-3" source="ZB53LrSSdC5xNoq9Xd-c-83" target="ZB53LrSSdC5xNoq9Xd-c-85">
          <mxGeometry relative="1" as="geometry">
            <mxPoint x="840" y="59.999999999999986" as="sourcePoint" />
            <mxPoint x="890" y="59.999999999999986" as="targetPoint" />
          </mxGeometry>
        </mxCell>
        <mxCell id="ZB53LrSSdC5xNoq9Xd-c-93" value="interview&amp;nbsp;&lt;div&gt;selection&lt;/div&gt;" style="points=[[0.25,0,0],[0.5,0,0],[0.75,0,0],[1,0.25,0],[1,0.5,0],[1,0.75,0],[0.75,1,0],[0.5,1,0],[0.25,1,0],[0,0.75,0],[0,0.5,0],[0,0.25,0]];shape=mxgraph.bpmn.task2;whiteSpace=wrap;rectStyle=rounded;size=10;html=1;container=1;expand=0;collapsible=0;taskMarker=abstract;" vertex="1" parent="ZB53LrSSdC5xNoq9Xd-c-3">
          <mxGeometry x="1810" y="20" width="60" height="70" as="geometry" />
        </mxCell>
        <mxCell id="ZB53LrSSdC5xNoq9Xd-c-90" value="interview&amp;nbsp;&lt;div&gt;scheduling&lt;/div&gt;" style="points=[[0.25,0,0],[0.5,0,0],[0.75,0,0],[1,0.25,0],[1,0.5,0],[1,0.75,0],[0.75,1,0],[0.5,1,0],[0.25,1,0],[0,0.75,0],[0,0.5,0],[0,0.25,0]];shape=mxgraph.bpmn.task2;whiteSpace=wrap;rectStyle=rounded;size=10;html=1;container=1;expand=0;collapsible=0;taskMarker=abstract;" vertex="1" parent="ZB53LrSSdC5xNoq9Xd-c-3">
          <mxGeometry x="1625" y="25" width="60" height="60" as="geometry" />
        </mxCell>
        <mxCell id="ZB53LrSSdC5xNoq9Xd-c-83" value="" style="rhombus;whiteSpace=wrap;html=1;" vertex="1" parent="ZB53LrSSdC5xNoq9Xd-c-3">
          <mxGeometry x="1315" y="25" width="60" height="60" as="geometry" />
        </mxCell>
        <mxCell id="hL35bKCOSnFXlqC572pn-49" value="" style="rhombus;whiteSpace=wrap;html=1;" vertex="1" parent="ZB53LrSSdC5xNoq9Xd-c-3">
          <mxGeometry x="300" y="25" width="65" height="60" as="geometry" />
        </mxCell>
        <mxCell id="hL35bKCOSnFXlqC572pn-52" style="edgeStyle=orthogonalEdgeStyle;rounded=0;orthogonalLoop=1;jettySize=auto;html=1;entryX=0;entryY=0.5;entryDx=0;entryDy=0;entryPerimeter=0;exitX=1;exitY=0.5;exitDx=0;exitDy=0;exitPerimeter=0;" edge="1" parent="ZB53LrSSdC5xNoq9Xd-c-3">
          <mxGeometry relative="1" as="geometry">
            <mxPoint x="80" y="54.16999999999996" as="sourcePoint" />
            <mxPoint x="160" y="54.16999999999996" as="targetPoint" />
          </mxGeometry>
        </mxCell>
        <mxCell id="hL35bKCOSnFXlqC572pn-55" value="" style="edgeStyle=elbowEdgeStyle;fontSize=12;html=1;endArrow=blockThin;endFill=1;rounded=0;exitX=1;exitY=0.5;exitDx=0;exitDy=0;entryX=0;entryY=0.5;entryDx=0;entryDy=0;entryPerimeter=0;" edge="1" parent="ZB53LrSSdC5xNoq9Xd-c-3" source="hL35bKCOSnFXlqC572pn-49" target="ZB53LrSSdC5xNoq9Xd-c-70">
          <mxGeometry width="160" relative="1" as="geometry">
            <mxPoint x="820" y="70" as="sourcePoint" />
            <mxPoint x="980" y="70" as="targetPoint" />
          </mxGeometry>
        </mxCell>
        <mxCell id="hL35bKCOSnFXlqC572pn-56" value="" style="edgeStyle=elbowEdgeStyle;fontSize=12;html=1;endArrow=blockThin;endFill=1;rounded=0;exitX=1;exitY=0.5;exitDx=0;exitDy=0;exitPerimeter=0;entryX=0;entryY=0.5;entryDx=0;entryDy=0;entryPerimeter=0;" edge="1" parent="ZB53LrSSdC5xNoq9Xd-c-3" source="ZB53LrSSdC5xNoq9Xd-c-70" target="ZB53LrSSdC5xNoq9Xd-c-72">
          <mxGeometry width="160" relative="1" as="geometry">
            <mxPoint x="820" y="70" as="sourcePoint" />
            <mxPoint x="980" y="70" as="targetPoint" />
          </mxGeometry>
        </mxCell>
        <mxCell id="hL35bKCOSnFXlqC572pn-57" value="" style="edgeStyle=elbowEdgeStyle;fontSize=12;html=1;endArrow=blockThin;endFill=1;rounded=0;exitX=0.5;exitY=1;exitDx=0;exitDy=0;entryX=1;entryY=0.5;entryDx=0;entryDy=0;entryPerimeter=0;" edge="1" parent="ZB53LrSSdC5xNoq9Xd-c-3" target="hL35bKCOSnFXlqC572pn-58">
          <mxGeometry width="160" relative="1" as="geometry">
            <mxPoint x="333" y="85" as="sourcePoint" />
            <mxPoint x="220" y="165" as="targetPoint" />
            <Array as="points">
              <mxPoint x="333" y="145" />
            </Array>
          </mxGeometry>
        </mxCell>
        <mxCell id="hL35bKCOSnFXlqC572pn-58" value="register" style="points=[[0.25,0,0],[0.5,0,0],[0.75,0,0],[1,0.25,0],[1,0.5,0],[1,0.75,0],[0.75,1,0],[0.5,1,0],[0.25,1,0],[0,0.75,0],[0,0.5,0],[0,0.25,0]];shape=mxgraph.bpmn.task2;whiteSpace=wrap;rectStyle=rounded;size=10;html=1;container=1;expand=0;collapsible=0;taskMarker=abstract;" vertex="1" parent="ZB53LrSSdC5xNoq9Xd-c-3">
          <mxGeometry x="160" y="130" width="50" height="60" as="geometry" />
        </mxCell>
        <mxCell id="hL35bKCOSnFXlqC572pn-59" value="" style="edgeStyle=elbowEdgeStyle;fontSize=12;html=1;endArrow=blockThin;endFill=1;rounded=0;exitX=0.5;exitY=0;exitDx=0;exitDy=0;exitPerimeter=0;entryX=0.5;entryY=1;entryDx=0;entryDy=0;entryPerimeter=0;" edge="1" parent="ZB53LrSSdC5xNoq9Xd-c-3" source="hL35bKCOSnFXlqC572pn-58" target="ZB53LrSSdC5xNoq9Xd-c-63">
          <mxGeometry width="160" relative="1" as="geometry">
            <mxPoint x="820" y="70" as="sourcePoint" />
            <mxPoint x="980" y="70" as="targetPoint" />
          </mxGeometry>
        </mxCell>
        <mxCell id="hL35bKCOSnFXlqC572pn-60" value="" style="points=[[0.145,0.145,0],[0.5,0,0],[0.855,0.145,0],[1,0.5,0],[0.855,0.855,0],[0.5,1,0],[0.145,0.855,0],[0,0.5,0]];shape=mxgraph.bpmn.event;html=1;verticalLabelPosition=bottom;labelBackgroundColor=#ffffff;verticalAlign=top;align=center;perimeter=ellipsePerimeter;outlineConnect=0;aspect=fixed;outline=end;symbol=terminate2;" vertex="1" parent="ZB53LrSSdC5xNoq9Xd-c-3">
          <mxGeometry x="2340" y="30" width="50" height="50" as="geometry" />
        </mxCell>
        <mxCell id="hL35bKCOSnFXlqC572pn-61" value="" style="edgeStyle=orthogonalEdgeStyle;rounded=0;orthogonalLoop=1;jettySize=auto;html=1;" edge="1" parent="ZB53LrSSdC5xNoq9Xd-c-3">
          <mxGeometry relative="1" as="geometry">
            <mxPoint x="2240" y="54.170000000000016" as="sourcePoint" />
            <mxPoint x="2340" y="54.170000000000016" as="targetPoint" />
          </mxGeometry>
        </mxCell>
        <mxCell id="ZB53LrSSdC5xNoq9Xd-c-4" value="PLATFORM ADMIN" style="swimlane;html=1;startSize=20;horizontal=0;" vertex="1" parent="ZB53LrSSdC5xNoq9Xd-c-1">
          <mxGeometry x="20" y="420" width="2460" height="300" as="geometry" />
        </mxCell>
        <mxCell id="ZB53LrSSdC5xNoq9Xd-c-128" value="login" style="points=[[0.25,0,0],[0.5,0,0],[0.75,0,0],[1,0.25,0],[1,0.5,0],[1,0.75,0],[0.75,1,0],[0.5,1,0],[0.25,1,0],[0,0.75,0],[0,0.5,0],[0,0.25,0]];shape=mxgraph.bpmn.task2;whiteSpace=wrap;rectStyle=rounded;size=10;html=1;container=1;expand=0;collapsible=0;taskMarker=abstract;" vertex="1" parent="ZB53LrSSdC5xNoq9Xd-c-4">
          <mxGeometry x="170" y="95" width="50" height="60" as="geometry" />
        </mxCell>
        <mxCell id="hL35bKCOSnFXlqC572pn-66" value="" style="edgeStyle=orthogonalEdgeStyle;rounded=0;orthogonalLoop=1;jettySize=auto;html=1;" edge="1" parent="ZB53LrSSdC5xNoq9Xd-c-4" source="ZB53LrSSdC5xNoq9Xd-c-134" target="hL35bKCOSnFXlqC572pn-65">
          <mxGeometry relative="1" as="geometry" />
        </mxCell>
        <mxCell id="ZB53LrSSdC5xNoq9Xd-c-134" value="seeker&lt;div&gt;profile&lt;/div&gt;" style="points=[[0.25,0,0],[0.5,0,0],[0.75,0,0],[1,0.25,0],[1,0.5,0],[1,0.75,0],[0.75,1,0],[0.5,1,0],[0.25,1,0],[0,0.75,0],[0,0.5,0],[0,0.25,0]];shape=mxgraph.bpmn.task2;whiteSpace=wrap;rectStyle=rounded;size=10;html=1;container=1;expand=0;collapsible=0;taskMarker=abstract;" vertex="1" parent="ZB53LrSSdC5xNoq9Xd-c-4">
          <mxGeometry x="320" y="95" width="80" height="60" as="geometry" />
        </mxCell>
        <mxCell id="hL35bKCOSnFXlqC572pn-62" value="" style="points=[[0.145,0.145,0],[0.5,0,0],[0.855,0.145,0],[1,0.5,0],[0.855,0.855,0],[0.5,1,0],[0.145,0.855,0],[0,0.5,0]];shape=mxgraph.bpmn.event;html=1;verticalLabelPosition=bottom;labelBackgroundColor=#ffffff;verticalAlign=top;align=center;perimeter=ellipsePerimeter;outlineConnect=0;aspect=fixed;outline=standard;symbol=general;" vertex="1" parent="ZB53LrSSdC5xNoq9Xd-c-4">
          <mxGeometry x="30" y="100" width="50" height="50" as="geometry" />
        </mxCell>
        <mxCell id="hL35bKCOSnFXlqC572pn-64" value="" style="edgeStyle=elbowEdgeStyle;fontSize=12;html=1;endArrow=blockThin;endFill=1;rounded=0;exitX=1;exitY=0.5;exitDx=0;exitDy=0;exitPerimeter=0;entryX=0;entryY=0.5;entryDx=0;entryDy=0;entryPerimeter=0;" edge="1" parent="ZB53LrSSdC5xNoq9Xd-c-4" source="ZB53LrSSdC5xNoq9Xd-c-128" target="ZB53LrSSdC5xNoq9Xd-c-134">
          <mxGeometry width="160" relative="1" as="geometry">
            <mxPoint x="150" y="80" as="sourcePoint" />
            <mxPoint x="310" y="80" as="targetPoint" />
          </mxGeometry>
        </mxCell>
        <mxCell id="hL35bKCOSnFXlqC572pn-68" value="" style="edgeStyle=orthogonalEdgeStyle;rounded=0;orthogonalLoop=1;jettySize=auto;html=1;" edge="1" parent="ZB53LrSSdC5xNoq9Xd-c-4" source="hL35bKCOSnFXlqC572pn-65" target="hL35bKCOSnFXlqC572pn-67">
          <mxGeometry relative="1" as="geometry" />
        </mxCell>
        <mxCell id="hL35bKCOSnFXlqC572pn-65" value="Provider&lt;div&gt;profile&lt;/div&gt;" style="points=[[0.25,0,0],[0.5,0,0],[0.75,0,0],[1,0.25,0],[1,0.5,0],[1,0.75,0],[0.75,1,0],[0.5,1,0],[0.25,1,0],[0,0.75,0],[0,0.5,0],[0,0.25,0]];shape=mxgraph.bpmn.task2;whiteSpace=wrap;rectStyle=rounded;size=10;html=1;container=1;expand=0;collapsible=0;taskMarker=abstract;" vertex="1" parent="ZB53LrSSdC5xNoq9Xd-c-4">
          <mxGeometry x="480" y="95" width="80" height="60" as="geometry" />
        </mxCell>
        <mxCell id="hL35bKCOSnFXlqC572pn-70" value="" style="edgeStyle=orthogonalEdgeStyle;rounded=0;orthogonalLoop=1;jettySize=auto;html=1;" edge="1" parent="ZB53LrSSdC5xNoq9Xd-c-4" source="hL35bKCOSnFXlqC572pn-67" target="hL35bKCOSnFXlqC572pn-69">
          <mxGeometry relative="1" as="geometry" />
        </mxCell>
        <mxCell id="hL35bKCOSnFXlqC572pn-67" value="Add skill" style="points=[[0.25,0,0],[0.5,0,0],[0.75,0,0],[1,0.25,0],[1,0.5,0],[1,0.75,0],[0.75,1,0],[0.5,1,0],[0.25,1,0],[0,0.75,0],[0,0.5,0],[0,0.25,0]];shape=mxgraph.bpmn.task2;whiteSpace=wrap;rectStyle=rounded;size=10;html=1;container=1;expand=0;collapsible=0;taskMarker=abstract;" vertex="1" parent="ZB53LrSSdC5xNoq9Xd-c-4">
          <mxGeometry x="640" y="95" width="80" height="60" as="geometry" />
        </mxCell>
        <mxCell id="hL35bKCOSnFXlqC572pn-72" value="" style="edgeStyle=orthogonalEdgeStyle;rounded=0;orthogonalLoop=1;jettySize=auto;html=1;" edge="1" parent="ZB53LrSSdC5xNoq9Xd-c-4" source="hL35bKCOSnFXlqC572pn-69" target="hL35bKCOSnFXlqC572pn-71">
          <mxGeometry relative="1" as="geometry" />
        </mxCell>
        <mxCell id="hL35bKCOSnFXlqC572pn-69" value="Job management" style="points=[[0.25,0,0],[0.5,0,0],[0.75,0,0],[1,0.25,0],[1,0.5,0],[1,0.75,0],[0.75,1,0],[0.5,1,0],[0.25,1,0],[0,0.75,0],[0,0.5,0],[0,0.25,0]];shape=mxgraph.bpmn.task2;whiteSpace=wrap;rectStyle=rounded;size=10;html=1;container=1;expand=0;collapsible=0;taskMarker=abstract;" vertex="1" parent="ZB53LrSSdC5xNoq9Xd-c-4">
          <mxGeometry x="800" y="95" width="80" height="60" as="geometry" />
        </mxCell>
        <mxCell id="hL35bKCOSnFXlqC572pn-74" value="" style="edgeStyle=orthogonalEdgeStyle;rounded=0;orthogonalLoop=1;jettySize=auto;html=1;" edge="1" parent="ZB53LrSSdC5xNoq9Xd-c-4" source="hL35bKCOSnFXlqC572pn-71" target="hL35bKCOSnFXlqC572pn-73">
          <mxGeometry relative="1" as="geometry" />
        </mxCell>
        <mxCell id="hL35bKCOSnFXlqC572pn-71" value="Payment&amp;nbsp;&lt;div&gt;management&lt;/div&gt;" style="points=[[0.25,0,0],[0.5,0,0],[0.75,0,0],[1,0.25,0],[1,0.5,0],[1,0.75,0],[0.75,1,0],[0.5,1,0],[0.25,1,0],[0,0.75,0],[0,0.5,0],[0,0.25,0]];shape=mxgraph.bpmn.task2;whiteSpace=wrap;rectStyle=rounded;size=10;html=1;container=1;expand=0;collapsible=0;taskMarker=abstract;" vertex="1" parent="ZB53LrSSdC5xNoq9Xd-c-4">
          <mxGeometry x="960" y="95" width="80" height="60" as="geometry" />
        </mxCell>
        <mxCell id="hL35bKCOSnFXlqC572pn-73" value="Manitenance" style="points=[[0.25,0,0],[0.5,0,0],[0.75,0,0],[1,0.25,0],[1,0.5,0],[1,0.75,0],[0.75,1,0],[0.5,1,0],[0.25,1,0],[0,0.75,0],[0,0.5,0],[0,0.25,0]];shape=mxgraph.bpmn.task2;whiteSpace=wrap;rectStyle=rounded;size=10;html=1;container=1;expand=0;collapsible=0;taskMarker=abstract;" vertex="1" parent="ZB53LrSSdC5xNoq9Xd-c-4">
          <mxGeometry x="1120" y="95" width="80" height="60" as="geometry" />
        </mxCell>
        <mxCell id="hL35bKCOSnFXlqC572pn-75" value="" style="edgeStyle=orthogonalEdgeStyle;rounded=0;orthogonalLoop=1;jettySize=auto;html=1;" edge="1" parent="ZB53LrSSdC5xNoq9Xd-c-4">
          <mxGeometry relative="1" as="geometry">
            <mxPoint x="1200" y="124.16999999999996" as="sourcePoint" />
            <mxPoint x="1280" y="124.16999999999996" as="targetPoint" />
          </mxGeometry>
        </mxCell>
        <mxCell id="hL35bKCOSnFXlqC572pn-76" value="" style="points=[[0.145,0.145,0],[0.5,0,0],[0.855,0.145,0],[1,0.5,0],[0.855,0.855,0],[0.5,1,0],[0.145,0.855,0],[0,0.5,0]];shape=mxgraph.bpmn.event;html=1;verticalLabelPosition=bottom;labelBackgroundColor=#ffffff;verticalAlign=top;align=center;perimeter=ellipsePerimeter;outlineConnect=0;aspect=fixed;outline=end;symbol=terminate2;" vertex="1" parent="ZB53LrSSdC5xNoq9Xd-c-4">
          <mxGeometry x="1280" y="95" width="50" height="50" as="geometry" />
        </mxCell>
        <mxCell id="hL35bKCOSnFXlqC572pn-77" value="" style="dashed=1;dashPattern=8 4;endArrow=blockThin;endFill=1;startArrow=oval;startFill=0;endSize=6;startSize=4;html=1;rounded=0;exitX=0.5;exitY=0;exitDx=0;exitDy=0;entryX=0.5;entryY=1;entryDx=0;entryDy=0;entryPerimeter=0;" edge="1" parent="ZB53LrSSdC5xNoq9Xd-c-1" source="ZB53LrSSdC5xNoq9Xd-c-83" target="hL35bKCOSnFXlqC572pn-24">
          <mxGeometry width="160" relative="1" as="geometry">
            <mxPoint x="1470" y="300" as="sourcePoint" />
            <mxPoint x="1630" y="300" as="targetPoint" />
          </mxGeometry>
        </mxCell>
        <mxCell id="hL35bKCOSnFXlqC572pn-78" value="" style="dashed=1;dashPattern=8 4;endArrow=blockThin;endFill=1;startArrow=oval;startFill=0;endSize=6;startSize=4;html=1;rounded=0;exitX=0.5;exitY=0;exitDx=0;exitDy=0;exitPerimeter=0;entryX=0.5;entryY=1;entryDx=0;entryDy=0;entryPerimeter=0;" edge="1" parent="ZB53LrSSdC5xNoq9Xd-c-1" source="ZB53LrSSdC5xNoq9Xd-c-111" target="hL35bKCOSnFXlqC572pn-24">
          <mxGeometry width="160" relative="1" as="geometry">
            <mxPoint x="1470" y="300" as="sourcePoint" />
            <mxPoint x="1630" y="300" as="targetPoint" />
          </mxGeometry>
        </mxCell>
        <mxCell id="hL35bKCOSnFXlqC572pn-79" value="" style="edgeStyle=elbowEdgeStyle;fontSize=12;html=1;endFill=0;startFill=0;endSize=6;startSize=6;dashed=1;dashPattern=1 4;endArrow=none;startArrow=none;rounded=0;exitX=0.5;exitY=0;exitDx=0;exitDy=0;exitPerimeter=0;entryX=0.5;entryY=1;entryDx=0;entryDy=0;entryPerimeter=0;strokeWidth=2;" edge="1" parent="ZB53LrSSdC5xNoq9Xd-c-1" source="hL35bKCOSnFXlqC572pn-73" target="hL35bKCOSnFXlqC572pn-26">
          <mxGeometry width="160" relative="1" as="geometry">
            <mxPoint x="1470" y="300" as="sourcePoint" />
            <mxPoint x="1630" y="300" as="targetPoint" />
            <Array as="points">
              <mxPoint x="1440" y="300" />
            </Array>
          </mxGeometry>
        </mxCell>
        <mxCell id="hL35bKCOSnFXlqC572pn-80" value="" style="edgeStyle=elbowEdgeStyle;fontSize=12;html=1;endFill=0;startFill=0;endSize=6;startSize=6;dashed=1;dashPattern=1 4;endArrow=none;startArrow=none;rounded=0;exitX=0.5;exitY=1;exitDx=0;exitDy=0;exitPerimeter=0;entryX=0.5;entryY=1;entryDx=0;entryDy=0;entryPerimeter=0;strokeWidth=2;" edge="1" parent="ZB53LrSSdC5xNoq9Xd-c-1" source="hL35bKCOSnFXlqC572pn-73" target="ZB53LrSSdC5xNoq9Xd-c-137">
          <mxGeometry width="160" relative="1" as="geometry">
            <mxPoint x="1470" y="300" as="sourcePoint" />
            <mxPoint x="1630" y="300" as="targetPoint" />
            <Array as="points">
              <mxPoint x="2210" y="620" />
            </Array>
          </mxGeometry>
        </mxCell>
        <mxCell id="ptj5JHUqnuWcoFaozvex-5" value="" style="edgeStyle=elbowEdgeStyle;fontSize=12;html=1;endFill=0;startFill=0;endSize=6;startSize=6;dashed=1;dashPattern=1 4;endArrow=none;startArrow=none;rounded=0;entryX=0.5;entryY=1;entryDx=0;entryDy=0;entryPerimeter=0;strokeWidth=2;" edge="1" parent="ZB53LrSSdC5xNoq9Xd-c-1" target="hL35bKCOSnFXlqC572pn-22">
          <mxGeometry width="160" relative="1" as="geometry">
            <mxPoint x="1530" y="245" as="sourcePoint" />
            <mxPoint x="1240" y="90" as="targetPoint" />
            <Array as="points">
              <mxPoint x="1380" y="170" />
            </Array>
          </mxGeometry>
        </mxCell>
        <mxCell id="hL35bKCOSnFXlqC572pn-54" value="" style="edgeStyle=elbowEdgeStyle;fontSize=12;html=1;endArrow=blockThin;endFill=1;rounded=0;exitX=1;exitY=0.5;exitDx=0;exitDy=0;exitPerimeter=0;" edge="1" parent="1" source="ZB53LrSSdC5xNoq9Xd-c-63">
          <mxGeometry width="160" relative="1" as="geometry">
            <mxPoint x="990" y="490" as="sourcePoint" />
            <mxPoint x="470" y="475" as="targetPoint" />
          </mxGeometry>
        </mxCell>
        <mxCell id="hL35bKCOSnFXlqC572pn-63" value="" style="edgeStyle=elbowEdgeStyle;fontSize=12;html=1;endArrow=blockThin;endFill=1;rounded=0;exitX=1;exitY=0.5;exitDx=0;exitDy=0;exitPerimeter=0;" edge="1" parent="1" source="hL35bKCOSnFXlqC572pn-62">
          <mxGeometry width="160" relative="1" as="geometry">
            <mxPoint x="320" y="700" as="sourcePoint" />
            <mxPoint x="340" y="745" as="targetPoint" />
          </mxGeometry>
        </mxCell>
      </root>
    </mxGraphModel>
  </diagram>
</mxfile>
